<mxfile host="app.diagrams.net" modified="2020-03-12T20:57:46.364Z" agent="Mozilla/5.0 (Macintosh; Intel Mac OS X 10_15_2) AppleWebKit/537.36 (KHTML, like Gecko) Chrome/79.0.3945.130 Safari/537.36" etag="s76w_o9EMFFBPnvvfLfV" version="12.8.4" type="github">
  <diagram name="Page-1" id="fbcf5db9-b524-4cd4-e4f3-379dc89c3999">
    <mxGraphModel dx="786" dy="513" grid="1" gridSize="10" guides="1" tooltips="1" connect="1" arrows="1" fold="1" page="1" pageScale="1" pageWidth="850" pageHeight="1100" background="#ffffff" math="0" shadow="0">
      <root>
        <mxCell id="0" />
        <mxCell id="1" parent="0" />
        <mxCell id="epnaZS2nQEqOv4XYeiLC-1" value="" style="shape=flexArrow;endArrow=classic;html=1;fillColor=#CC0000;strokeColor=#b85450;endSize=17;startSize=6;" parent="1" edge="1">
          <mxGeometry width="50" height="50" relative="1" as="geometry">
            <mxPoint x="359.5" y="120" as="sourcePoint" />
            <mxPoint x="359.5" y="780" as="targetPoint" />
          </mxGeometry>
        </mxCell>
        <mxCell id="2a0f93b5c73ef8e7-2" value="" style="rounded=1;whiteSpace=wrap;html=1;strokeColor=none;strokeWidth=1;fillColor=#F2931E;fontSize=13;fontColor=#FFFFFF;align=center;gradientColor=none;gradientDirection=east;verticalAlign=top;shadow=1;" parent="1" vertex="1">
          <mxGeometry x="80" y="135" width="310" height="85" as="geometry" />
        </mxCell>
        <mxCell id="2a0f93b5c73ef8e7-3" value="1" style="text;html=1;strokeColor=none;fillColor=none;align=center;verticalAlign=middle;whiteSpace=wrap;fontSize=30;fontColor=#FFFFFF;" parent="1" vertex="1">
          <mxGeometry x="345" y="167.5" width="40" height="20" as="geometry" />
        </mxCell>
        <mxCell id="2a0f93b5c73ef8e7-4" value="" style="rounded=1;whiteSpace=wrap;html=1;strokeColor=none;strokeWidth=1;fillColor=#10739E;fontSize=13;fontColor=#FFFFFF;align=center;gradientColor=none;gradientDirection=east;verticalAlign=top;shadow=1;" parent="1" vertex="1">
          <mxGeometry x="340" y="250" width="310" height="85" as="geometry" />
        </mxCell>
        <mxCell id="2a0f93b5c73ef8e7-5" value="2" style="text;html=1;strokeColor=none;fillColor=none;align=center;verticalAlign=middle;whiteSpace=wrap;fontSize=30;fontColor=#FFFFFF;" parent="1" vertex="1">
          <mxGeometry x="350" y="283" width="40" height="20" as="geometry" />
        </mxCell>
        <mxCell id="2a0f93b5c73ef8e7-6" value="" style="rounded=1;whiteSpace=wrap;html=1;strokeColor=none;strokeWidth=1;fillColor=#F2931E;fontSize=13;fontColor=#FFFFFF;align=center;gradientColor=none;gradientDirection=east;verticalAlign=top;shadow=1;" parent="1" vertex="1">
          <mxGeometry x="80" y="360" width="310" height="85" as="geometry" />
        </mxCell>
        <mxCell id="2a0f93b5c73ef8e7-7" value="3" style="text;html=1;strokeColor=none;fillColor=none;align=center;verticalAlign=middle;whiteSpace=wrap;fontSize=30;fontColor=#FFFFFF;" parent="1" vertex="1">
          <mxGeometry x="340" y="392.5" width="40" height="20" as="geometry" />
        </mxCell>
        <mxCell id="2a0f93b5c73ef8e7-8" value="" style="rounded=1;whiteSpace=wrap;html=1;strokeColor=none;strokeWidth=1;fillColor=#10739E;fontSize=13;fontColor=#FFFFFF;align=center;gradientColor=none;gradientDirection=east;verticalAlign=top;shadow=1;" parent="1" vertex="1">
          <mxGeometry x="340" y="475" width="320" height="85" as="geometry" />
        </mxCell>
        <mxCell id="2a0f93b5c73ef8e7-9" value="4" style="text;html=1;strokeColor=none;fillColor=none;align=center;verticalAlign=middle;whiteSpace=wrap;fontSize=30;fontColor=#FFFFFF;" parent="1" vertex="1">
          <mxGeometry x="350" y="508" width="40" height="20" as="geometry" />
        </mxCell>
        <mxCell id="2a0f93b5c73ef8e7-10" value="" style="rounded=1;whiteSpace=wrap;html=1;strokeColor=none;strokeWidth=1;fillColor=#F2931E;fontSize=13;fontColor=#FFFFFF;align=center;gradientColor=none;gradientDirection=east;verticalAlign=top;shadow=1;" parent="1" vertex="1">
          <mxGeometry x="80" y="590" width="310" height="85" as="geometry" />
        </mxCell>
        <mxCell id="2a0f93b5c73ef8e7-11" value="5" style="text;html=1;strokeColor=none;fillColor=none;align=center;verticalAlign=middle;whiteSpace=wrap;fontSize=30;fontColor=#FFFFFF;" parent="1" vertex="1">
          <mxGeometry x="345" y="622.5" width="40" height="20" as="geometry" />
        </mxCell>
        <mxCell id="2a0f93b5c73ef8e7-18" value="&lt;h1&gt;Commande&lt;/h1&gt;&lt;p&gt;Lorem ipsum dolor sit amet, consectetur adipisicing elit, sed do eiusmod tempor incididunt ut labore et dolore magna aliqua.&lt;/p&gt;" style="text;html=1;spacing=5;spacingTop=-20;whiteSpace=wrap;overflow=hidden;strokeColor=none;strokeWidth=4;fillColor=none;gradientColor=#007FFF;fontSize=9;fontColor=#FFFFFF;align=center;" parent="1" vertex="1">
          <mxGeometry x="190" y="139" width="160" height="77" as="geometry" />
        </mxCell>
        <mxCell id="2a0f93b5c73ef8e7-19" value="&lt;h1&gt;Préparation&lt;/h1&gt;&lt;p&gt;Lorem ipsum dolor sit amet, consectetur adipisicing elit, sed do eiusmod tempor incididunt ut labore et dolore magna aliqua.&lt;/p&gt;" style="text;html=1;spacing=5;spacingTop=-20;whiteSpace=wrap;overflow=hidden;strokeColor=none;strokeWidth=4;fillColor=none;gradientColor=#007FFF;fontSize=9;fontColor=#FFFFFF;align=center;" parent="1" vertex="1">
          <mxGeometry x="400" y="254" width="160" height="77" as="geometry" />
        </mxCell>
        <mxCell id="2a0f93b5c73ef8e7-20" value="&lt;h1&gt;Attribution&lt;/h1&gt;&lt;p&gt;Lorem ipsum dolor sit amet, consectetur adipisicing elit, sed do eiusmod tempor incididunt ut labore et dolore magna aliqua.&lt;/p&gt;" style="text;html=1;spacing=5;spacingTop=-20;whiteSpace=wrap;overflow=hidden;strokeColor=none;strokeWidth=4;fillColor=none;gradientColor=#007FFF;fontSize=9;fontColor=#FFFFFF;align=center;" parent="1" vertex="1">
          <mxGeometry x="185" y="364" width="160" height="77" as="geometry" />
        </mxCell>
        <mxCell id="2a0f93b5c73ef8e7-21" value="&lt;h1&gt;Livraison&lt;/h1&gt;&lt;p&gt;Lorem ipsum dolor sit amet, consectetur adipisicing elit, sed do eiusmod tempor incididunt ut labore et dolore magna aliqua.&lt;/p&gt;" style="text;html=1;spacing=5;spacingTop=-20;whiteSpace=wrap;overflow=hidden;strokeColor=none;strokeWidth=4;fillColor=none;gradientColor=#007FFF;fontSize=9;fontColor=#FFFFFF;align=center;" parent="1" vertex="1">
          <mxGeometry x="390" y="479" width="160" height="77" as="geometry" />
        </mxCell>
        <mxCell id="2a0f93b5c73ef8e7-22" value="&lt;h1&gt;Réception&lt;/h1&gt;&lt;p&gt;Lorem ipsum dolor sit amet, consectetur adipisicing elit, sed do eiusmod tempor incididunt ut labore et dolore magna aliqua.&lt;/p&gt;" style="text;html=1;spacing=5;spacingTop=-20;whiteSpace=wrap;overflow=hidden;strokeColor=none;strokeWidth=4;fillColor=none;gradientColor=#007FFF;fontSize=9;fontColor=#FFFFFF;align=center;" parent="1" vertex="1">
          <mxGeometry x="190" y="594" width="160" height="77" as="geometry" />
        </mxCell>
        <mxCell id="epnaZS2nQEqOv4XYeiLC-2" value="" style="shape=actor;whiteSpace=wrap;html=1;fillColor=#d80073;strokeColor=#A50040;fontColor=#ffffff;" parent="1" vertex="1">
          <mxGeometry x="110" y="139" width="50" height="60" as="geometry" />
        </mxCell>
        <mxCell id="epnaZS2nQEqOv4XYeiLC-3" value="Acheteur" style="text;html=1;strokeColor=none;fillColor=none;align=center;verticalAlign=middle;whiteSpace=wrap;rounded=0;fontColor=#FFFFFF;" parent="1" vertex="1">
          <mxGeometry x="115" y="200" width="40" height="20" as="geometry" />
        </mxCell>
        <mxCell id="epnaZS2nQEqOv4XYeiLC-4" value="" style="shape=actor;whiteSpace=wrap;html=1;fillColor=#a0522d;strokeColor=#6D1F00;fontColor=#ffffff;" parent="1" vertex="1">
          <mxGeometry x="580" y="254" width="50" height="60" as="geometry" />
        </mxCell>
        <mxCell id="epnaZS2nQEqOv4XYeiLC-5" value="Pizzaiolo" style="text;html=1;align=center;verticalAlign=middle;whiteSpace=wrap;rounded=0;fontColor=#FFFFFF;" parent="1" vertex="1">
          <mxGeometry x="585" y="315" width="40" height="20" as="geometry" />
        </mxCell>
        <mxCell id="epnaZS2nQEqOv4XYeiLC-6" value="" style="shape=actor;whiteSpace=wrap;html=1;fillColor=#76608a;strokeColor=#432D57;fontColor=#ffffff;" parent="1" vertex="1">
          <mxGeometry x="110" y="364" width="50" height="60" as="geometry" />
        </mxCell>
        <mxCell id="epnaZS2nQEqOv4XYeiLC-7" value="Pizzaiolo" style="text;html=1;align=center;verticalAlign=middle;whiteSpace=wrap;rounded=0;fontColor=#FFFFFF;" parent="1" vertex="1">
          <mxGeometry x="115" y="425" width="40" height="20" as="geometry" />
        </mxCell>
        <mxCell id="epnaZS2nQEqOv4XYeiLC-8" value="" style="shape=actor;whiteSpace=wrap;html=1;fillColor=#f0a30a;strokeColor=#BD7000;fontColor=#ffffff;" parent="1" vertex="1">
          <mxGeometry x="590" y="479" width="50" height="60" as="geometry" />
        </mxCell>
        <mxCell id="epnaZS2nQEqOv4XYeiLC-9" value="Pizzaiolo" style="text;html=1;align=center;verticalAlign=middle;whiteSpace=wrap;rounded=0;fontColor=#FFFFFF;" parent="1" vertex="1">
          <mxGeometry x="595" y="540" width="40" height="20" as="geometry" />
        </mxCell>
        <mxCell id="lGsOqs7KrahkJYkH-Tee-1" value="" style="shape=actor;whiteSpace=wrap;html=1;fillColor=#60a917;strokeColor=#2D7600;fontColor=#ffffff;" vertex="1" parent="1">
          <mxGeometry x="110" y="594" width="50" height="60" as="geometry" />
        </mxCell>
        <mxCell id="lGsOqs7KrahkJYkH-Tee-2" value="Pizzaiolo" style="text;html=1;align=center;verticalAlign=middle;whiteSpace=wrap;rounded=0;fontColor=#FFFFFF;" vertex="1" parent="1">
          <mxGeometry x="115" y="655" width="40" height="20" as="geometry" />
        </mxCell>
      </root>
    </mxGraphModel>
  </diagram>
</mxfile>
